<svg xmlns="http://www.w3.org/2000/svg" width="55" height="55" fill="none"><path fill="#000D10" d="M0 0v55h27.755C42.78 55 55 42.78 55 27.755V0H0Zm53.84 27.755c0 14.376-11.709 26.086-26.085 26.086H1.16V1.159h52.682v26.596Z"/><path fill="#000D10" d="M10.411 19.199h6.84a3.805 3.805 0 0 0 3.803-3.803v14.052h4.684V5.728H21.03v9.691H10.41V5.727H5.727v23.72h4.684V19.2ZM31.697 12.15a3.247 3.247 0 0 0 2.782-2.782 3.216 3.216 0 0 0-3.617-3.618 3.247 3.247 0 0 0-2.782 2.783 3.216 3.216 0 0 0 3.617 3.617Zm.023-5.843c1.113.185 2.017 1.09 2.203 2.18a2.699 2.699 0 0 1-3.107 3.107c-1.113-.186-2.018-1.09-2.18-2.203-.325-1.809 1.252-3.386 3.084-3.084Z"/><path fill="#000D10" d="M30.723 9.252h.627l.602 1.182h.672l-.672-1.321c.371-.162.556-.44.556-.789 0-.626-.37-.927-1.39-.927h-.998v3.037h.603V9.252Zm0-1.368h.464c.417 0 .695.116.695.464 0 .301-.208.463-.672.463h-.487v-.927Z"/></svg>